<?xml version="1.0" encoding="UTF-8" standalone="no"?>
<!DOCTYPE svg PUBLIC "-//W3C//DTD SVG 1.1//EN" "http://www.w3.org/Graphics/SVG/1.1/DTD/svg11.dtd">
<!-- Generated by Microsoft Visio, SVG Export cisco-ntp-stratums.svg Page-1 -->
<svg xmlns="http://www.w3.org/2000/svg" xmlns:xlink="http://www.w3.org/1999/xlink" xmlns:ev="http://www.w3.org/2001/xml-events"
		xmlns:v="http://schemas.microsoft.com/visio/2003/SVGExtensions/" width="4.76187in" height="2.60795in"
		viewBox="0 0 342.855 187.773" xml:space="preserve" color-interpolation-filters="sRGB" class="st41">
	<v:documentProperties v:langID="1026" v:metric="true" v:viewMarkup="false"/>

	<style type="text/css">
	<![CDATA[
		.st1 {fill:#b7dde8;stroke:none;stroke-linecap:round;stroke-linejoin:round;stroke-width:0.24}
		.st2 {fill:#000000;font-family:Arial;font-size:0.75em;font-weight:bold}
		.st3 {fill:#0e6f9c;stroke:none;stroke-linecap:round;stroke-linejoin:round;stroke-width:0.75}
		.st4 {stroke:#f2f2f2;stroke-linecap:round;stroke-linejoin:round;stroke-width:0.594974}
		.st5 {fill:#1082b8;stroke:none;stroke-linecap:round;stroke-linejoin:round;stroke-width:0.75}
		.st6 {stroke:#ffffff;stroke-linecap:round;stroke-linejoin:round;stroke-width:1}
		.st7 {fill:#ffffff;stroke:none;stroke-linecap:round;stroke-linejoin:round;stroke-width:0.75}
		.st8 {fill:#1082b8;stroke:#92cddc;stroke-linecap:butt;stroke-width:0.5}
		.st9 {fill:#0e6f9c;stroke:#92cddc;stroke-linecap:butt;stroke-width:0.25}
		.st10 {fill:none;stroke:#4bacc6;stroke-linecap:butt;stroke-width:0.25}
		.st11 {fill:none}
		.st12 {stroke:#92cddc;stroke-linecap:butt;stroke-width:0.25}
		.st13 {fill:#bf8904;stroke:none;stroke-linecap:butt;stroke-width:4.6875}
		.st14 {fill:#875d00;stroke:none;stroke-linecap:butt;stroke-width:4.6875}
		.st15 {fill:#ffca28;stroke:none;stroke-linecap:butt;stroke-width:4.6875}
		.st16 {fill:#e2a610;stroke:none;stroke-linecap:butt;stroke-width:4.6875}
		.st17 {fill:#bf8904;stroke:none;stroke-linecap:butt;stroke-width:1}
		.st18 {fill:#0e6f9c;stroke:#92cddc;stroke-linecap:butt;stroke-width:0.5}
		.st19 {fill:#0e6f9c}
		.st20 {stroke:#92cddc;stroke-linecap:butt;stroke-width:0.5}
		.st21 {fill:#0e6f9c;stroke:#4bacc6;stroke-linecap:butt;stroke-width:0.25}
		.st22 {fill:#ffffff;stroke:#4bacc6;stroke-linecap:butt;stroke-width:0.25}
		.st23 {fill:#d8d8d8;stroke:none;stroke-linecap:butt;stroke-width:0.25}
		.st24 {stroke:#4bacc6;stroke-linecap:round;stroke-linejoin:round;stroke-width:0.25}
		.st25 {marker-end:url(#mrkr4-452);stroke:#000000;stroke-linecap:round;stroke-linejoin:round;stroke-width:1}
		.st26 {fill:#000000;fill-opacity:1;stroke:#000000;stroke-opacity:1;stroke-width:0.40983606557377}
		.st27 {marker-end:url(#mrkr4-478);stroke:#000000;stroke-linecap:round;stroke-linejoin:round;stroke-width:0.75}
		.st28 {fill:#000000;fill-opacity:1;stroke:#000000;stroke-opacity:1;stroke-width:0.34246575342466}
		.st29 {stroke:#000000;stroke-linecap:round;stroke-linejoin:round;stroke-width:0.75}
		.st30 {marker-end:url(#mrkr4-452);marker-start:url(#mrkr4-546);stroke:#000000;stroke-linecap:round;stroke-linejoin:round;stroke-width:1}
		.st31 {font-size:1em;font-weight:normal}
		.st32 {fill:none;stroke:none;stroke-linecap:round;stroke-linejoin:round;stroke-width:0.75}
		.st33 {fill:#000000;font-family:Arial;font-size:0.75em}
		.st34 {font-size:1em}
		.st35 {marker-end:url(#mrkr4-575);stroke:#000000;stroke-linecap:round;stroke-linejoin:round;stroke-width:1.5}
		.st36 {fill:#000000;fill-opacity:1;stroke:#000000;stroke-opacity:1;stroke-width:0.45454545454545}
		.st37 {marker-end:url(#mrkr4-575);marker-start:url(#mrkr4-582);stroke:#000000;stroke-linecap:round;stroke-linejoin:round;stroke-width:1.5}
		.st38 {fill:#000000;font-family:Arial;font-size:0.666664em}
		.st39 {marker-end:url(#mrkr4-602);stroke:#000000;stroke-linecap:round;stroke-linejoin:round;stroke-width:1.5}
		.st40 {fill:#000000;fill-opacity:1;stroke:#000000;stroke-opacity:1;stroke-width:0.51020408163265}
		.st41 {fill:none;fill-rule:evenodd;font-size:12px;overflow:visible;stroke-linecap:square;stroke-miterlimit:3}
	]]>
	</style>

	<defs id="Markers">
		<g id="lend4">
			<path d="M 2 1 L 0 0 L 2 -1 L 2 1 " style="stroke:none"/>
		</g>
		<marker id="mrkr4-452" class="st26" v:arrowType="4" v:arrowSize="0" v:setback="4.88" refX="-4.88" orient="auto"
				markerUnits="strokeWidth" overflow="visible">
			<use xlink:href="#lend4" transform="scale(-2.44,-2.44) "/>
		</marker>
		<marker id="mrkr4-478" class="st28" v:arrowType="4" v:arrowSize="0" v:setback="5.84" refX="-5.84" orient="auto"
				markerUnits="strokeWidth" overflow="visible">
			<use xlink:href="#lend4" transform="scale(-2.92,-2.92) "/>
		</marker>
		<marker id="mrkr4-546" class="st26" v:arrowType="4" v:arrowSize="0" v:setback="4.52" refX="4.52" orient="auto"
				markerUnits="strokeWidth" overflow="visible">
			<use xlink:href="#lend4" transform="scale(2.44) "/>
		</marker>
		<marker id="mrkr4-575" class="st36" v:arrowType="4" v:arrowSize="1" v:setback="4.4" refX="-4.4" orient="auto"
				markerUnits="strokeWidth" overflow="visible">
			<use xlink:href="#lend4" transform="scale(-2.2,-2.2) "/>
		</marker>
		<marker id="mrkr4-582" class="st36" v:arrowType="4" v:arrowSize="1" v:setback="4.16" refX="4.16" orient="auto"
				markerUnits="strokeWidth" overflow="visible">
			<use xlink:href="#lend4" transform="scale(2.2) "/>
		</marker>
		<marker id="mrkr4-602" class="st40" v:arrowType="4" v:arrowSize="0" v:setback="3.92" refX="-3.92" orient="auto"
				markerUnits="strokeWidth" overflow="visible">
			<use xlink:href="#lend4" transform="scale(-1.96,-1.96) "/>
		</marker>
	</defs>
	<g v:mID="0" v:index="1" v:groupContext="foregroundPage">
		<title>Page-1</title>
		<v:pageProperties v:drawingScale="0.0393701" v:pageScale="0.0393701" v:drawingUnits="24" v:shadowOffsetX="8.50394"
				v:shadowOffsetY="-8.50394"/>
		<g id="group272-1" transform="translate(0.375,-4.28005)" v:mID="272" v:groupContext="group">
			<title>Sheet.272</title>
			<g id="group260-2" transform="translate(0,-13.7829)" v:mID="260" v:groupContext="group">
				<title>Sheet.260</title>
				<g id="shape253-3" v:mID="253" v:groupContext="shape" transform="translate(0,-40.0069)">
					<title>Rectangle.253</title>
					<desc>Stratum 2</desc>
					<v:userDefs>
						<v:ud v:nameU="visVersion" v:val="VT0(15):26"/>
					</v:userDefs>
					<v:textBlock v:margins="rect(4,4,4,4)" v:tabSpace="42.5197"/>
					<v:textRect cx="137.144" cy="170.724" width="274.29" height="34.0973"/>
					<rect x="0" y="153.675" width="274.288" height="34.0973" rx="5.66929" ry="5.66929" class="st1"/>
					<text x="4" y="173.72" class="st2" v:langID="1033"><v:paragraph/><v:tabList/>Stratum 2</text>				</g>
				<g id="shape254-6" v:mID="254" v:groupContext="shape">
					<title>Rectangle.254</title>
					<desc>Stratum 3</desc>
					<v:userDefs>
						<v:ud v:nameU="visVersion" v:val="VT0(15):26"/>
					</v:userDefs>
					<v:textBlock v:margins="rect(4,4,4,4)" v:tabSpace="42.5197"/>
					<v:textRect cx="160.866" cy="170.724" width="321.74" height="34.0973"/>
					<rect x="0" y="153.675" width="321.732" height="34.0973" rx="5.66929" ry="5.66929" class="st1"/>
					<text x="4" y="173.72" class="st2" v:langID="1033"><v:paragraph/><v:tabList/>Stratum 3</text>				</g>
				<g id="shape252-9" v:mID="252" v:groupContext="shape" transform="translate(6.39488E-14,-80.0138)">
					<title>Rectangle</title>
					<desc>Stratum 1</desc>
					<v:userDefs>
						<v:ud v:nameU="visVersion" v:val="VT0(15):26"/>
					</v:userDefs>
					<v:textBlock v:margins="rect(4,4,4,4)" v:tabSpace="42.5197"/>
					<v:textRect cx="118.611" cy="170.724" width="237.23" height="34.0973"/>
					<rect x="0" y="153.675" width="237.222" height="34.0973" rx="5.66929" ry="5.66929" class="st1"/>
					<text x="4" y="173.42" class="st2" v:langID="1033"><v:paragraph/><v:tabList/>Stratum 1</text>				</g>
				<g id="group147-12" transform="translate(107.701,-46.6909)" v:mID="147" v:groupContext="group">
					<title>Sheet.147</title>
					<g id="group19-13" v:mID="19" v:groupContext="group">
						<title>Sheet.19</title>
						<g id="shape20-14" v:mID="20" v:groupContext="shape" transform="translate(0.0489881,2.84217E-14)">
							<title>Sheet.20</title>
							<path d="M32.09 182.27 C32.09 182.27 32.09 182.27 32.09 182.27 C32.09 185.32 24.89 187.77 16.07 187.77
										 C7.2 187.77 -0 185.32 0 182.27 C0 179.22 7.2 176.77 16.07 176.77 C24.89 176.77 32.09 179.22
										 32.09 182.27 Z" class="st3"/>
						</g>
						<g id="shape21-16" v:mID="21" v:groupContext="shape" transform="translate(0.0489881,2.84217E-14)">
							<title>Sheet.21</title>
							<path d="M32.09 182.27 C32.09 182.27 32.09 182.27 32.09 182.27 C32.09 185.32 24.89 187.77 16.07 187.77
										 C7.2 187.77 -0 185.32 0 182.27 C0 179.22 7.2 176.77 16.07 176.77 C24.89 176.77 32.09 179.22
										 32.09 182.27" class="st4"/>
						</g>
						<g id="shape22-19" v:mID="22" v:groupContext="shape" transform="translate(1.39888E-14,-5.35471)">
							<title>Sheet.22</title>
							<path d="M0 179.91 L0 187.77 L32.14 187.77 L32.14 179.91 L0 179.91 L0 179.91 L0 179.91 Z" class="st3"/>
						</g>
						<g id="shape23-21" v:mID="23" v:groupContext="shape" transform="translate(0.0489881,-7.86013)">
							<title>Sheet.23</title>
							<path d="M32.09 182.27 C32.09 182.27 32.09 182.27 32.09 182.27 C32.09 185.32 24.89 187.77 16.07 187.77
										 C7.2 187.77 -0 185.32 0 182.27 C0 179.22 7.2 176.77 16.07 176.77 C24.89 176.77 32.09 179.22
										 32.09 182.27 Z" class="st5"/>
						</g>
						<g id="shape24-23" v:mID="24" v:groupContext="shape" transform="translate(0.0489881,-7.86013)">
							<title>Sheet.24</title>
							<path d="M32.09 182.27 C32.09 182.27 32.09 182.27 32.09 182.27 C32.09 185.32 24.89 187.77 16.07 187.77
										 C7.2 187.77 -0 185.32 0 182.27 C0 179.22 7.2 176.77 16.07 176.77 C24.89 176.77 32.09 179.22
										 32.09 182.27" class="st6"/>
						</g>
						<g id="shape25-26" v:mID="25" v:groupContext="shape" transform="translate(16.509,-13.8044)">
							<title>Sheet.25</title>
							<path d="M0 186.99 L2.35 187.77 L7.94 185.56 L10.53 186.2 L9.16 184.19 L2.45 184.19 L5.24 184.87 L0 186.99
										 L0 186.99 L0 186.99 Z" class="st5"/>
						</g>
						<g id="shape26-28" v:mID="26" v:groupContext="shape" transform="translate(4.9478,-9.53041)">
							<title>Sheet.26</title>
							<path d="M10.58 184.97 L8.23 184.19 L2.65 186.45 L0 185.81 L1.42 187.77 L8.13 187.77 L5.29 187.08 L10.58
										 184.97 L10.58 184.97 L10.58 184.97 Z" class="st5"/>
						</g>
						<g id="shape27-30" v:mID="27" v:groupContext="shape" transform="translate(5.53565,-13.9026)">
							<title>Sheet.27</title>
							<path d="M0 184.97 L2.35 184.19 L7.94 186.45 L10.58 185.81 L9.21 187.77 L2.45 187.77 L5.29 187.08 L0
										 184.97 L0 184.97 L0 184.97 Z" class="st5"/>
						</g>
						<g id="shape28-32" v:mID="28" v:groupContext="shape" transform="translate(16.1661,-9.28478)">
							<title>Sheet.28</title>
							<path d="M10.53 186.99 L8.18 187.77 L2.6 185.56 L0 186.2 L1.37 184.19 L8.08 184.19 L5.29 184.87 L10.53
										 186.99 L10.53 186.99 L10.53 186.99 Z" class="st5"/>
						</g>
						<g id="shape29-34" v:mID="29" v:groupContext="shape" transform="translate(16.7049,-13.6079)">
							<title>Sheet.29</title>
							<path d="M0 186.99 L2.35 187.77 L7.94 185.56 L10.53 186.2 L9.16 184.19 L2.45 184.19 L5.24 184.87 L0 186.99
										 L0 186.99 L0 186.99 Z" class="st7"/>
						</g>
						<g id="shape30-36" v:mID="30" v:groupContext="shape" transform="translate(5.14375,-9.33391)">
							<title>Sheet.30</title>
							<path d="M10.58 184.97 L8.23 184.19 L2.65 186.45 L0 185.81 L1.42 187.77 L8.13 187.77 L5.29 187.08 L10.58
										 184.97 L10.58 184.97 L10.58 184.97 Z" class="st7"/>
						</g>
						<g id="shape31-38" v:mID="31" v:groupContext="shape" transform="translate(5.73161,-13.7061)">
							<title>Sheet.31</title>
							<path d="M0 184.97 L2.35 184.19 L7.94 186.45 L10.58 185.81 L9.21 187.77 L2.45 187.77 L5.29 187.08 L0
										 184.97 L0 184.97 L0 184.97 Z" class="st7"/>
						</g>
						<g id="shape32-40" v:mID="32" v:groupContext="shape" transform="translate(16.362,-9.08828)">
							<title>Sheet.32</title>
							<path d="M10.53 186.99 L8.18 187.77 L2.6 185.56 L0 186.2 L1.37 184.19 L8.08 184.19 L5.29 184.87 L10.53
										 186.99 L10.53 186.99 L10.53 186.99 Z" class="st7"/>
						</g>
						<g id="shape33-42" v:mID="33" v:groupContext="shape" transform="translate(0.0489881,-5.35471)">
							<title>Sheet.33</title>
							<path d="M0 179.86 L0 187.77" class="st4"/>
						</g>
						<g id="shape34-45" v:mID="34" v:groupContext="shape" transform="translate(32.1362,-5.35471)">
							<title>Sheet.34</title>
							<path d="M0 179.86 L0 187.77" class="st4"/>
						</g>
					</g>
					<g id="group35-48" transform="translate(53.396,2.84217E-14)" v:mID="35" v:groupContext="group">
						<title>Sheet.35</title>
						<g id="shape36-49" v:mID="36" v:groupContext="shape" transform="translate(0.0489881,2.84217E-14)">
							<title>Sheet.36</title>
							<path d="M32.09 182.27 C32.09 182.27 32.09 182.27 32.09 182.27 C32.09 185.32 24.89 187.77 16.07 187.77
										 C7.2 187.77 -0 185.32 0 182.27 C0 179.22 7.2 176.77 16.07 176.77 C24.89 176.77 32.09 179.22
										 32.09 182.27 Z" class="st3"/>
						</g>
						<g id="shape37-51" v:mID="37" v:groupContext="shape" transform="translate(0.0489881,2.84217E-14)">
							<title>Sheet.37</title>
							<path d="M32.09 182.27 C32.09 182.27 32.09 182.27 32.09 182.27 C32.09 185.32 24.89 187.77 16.07 187.77
										 C7.2 187.77 -0 185.32 0 182.27 C0 179.22 7.2 176.77 16.07 176.77 C24.89 176.77 32.09 179.22
										 32.09 182.27" class="st4"/>
						</g>
						<g id="shape38-54" v:mID="38" v:groupContext="shape" transform="translate(1.39888E-14,-5.35471)">
							<title>Sheet.38</title>
							<path d="M0 179.91 L0 187.77 L32.14 187.77 L32.14 179.91 L0 179.91 L0 179.91 L0 179.91 Z" class="st3"/>
						</g>
						<g id="shape39-56" v:mID="39" v:groupContext="shape" transform="translate(0.0489881,-7.86013)">
							<title>Sheet.39</title>
							<path d="M32.09 182.27 C32.09 182.27 32.09 182.27 32.09 182.27 C32.09 185.32 24.89 187.77 16.07 187.77
										 C7.2 187.77 -0 185.32 0 182.27 C0 179.22 7.2 176.77 16.07 176.77 C24.89 176.77 32.09 179.22
										 32.09 182.27 Z" class="st5"/>
						</g>
						<g id="shape40-58" v:mID="40" v:groupContext="shape" transform="translate(0.0489881,-7.86013)">
							<title>Sheet.40</title>
							<path d="M32.09 182.27 C32.09 182.27 32.09 182.27 32.09 182.27 C32.09 185.32 24.89 187.77 16.07 187.77
										 C7.2 187.77 -0 185.32 0 182.27 C0 179.22 7.2 176.77 16.07 176.77 C24.89 176.77 32.09 179.22
										 32.09 182.27" class="st6"/>
						</g>
						<g id="shape41-61" v:mID="41" v:groupContext="shape" transform="translate(16.509,-13.8044)">
							<title>Sheet.41</title>
							<path d="M0 186.99 L2.35 187.77 L7.94 185.56 L10.53 186.2 L9.16 184.19 L2.45 184.19 L5.24 184.87 L0 186.99
										 L0 186.99 L0 186.99 Z" class="st5"/>
						</g>
						<g id="shape42-63" v:mID="42" v:groupContext="shape" transform="translate(4.9478,-9.53041)">
							<title>Sheet.42</title>
							<path d="M10.58 184.97 L8.23 184.19 L2.65 186.45 L0 185.81 L1.42 187.77 L8.13 187.77 L5.29 187.08 L10.58
										 184.97 L10.58 184.97 L10.58 184.97 Z" class="st5"/>
						</g>
						<g id="shape43-65" v:mID="43" v:groupContext="shape" transform="translate(5.53565,-13.9026)">
							<title>Sheet.43</title>
							<path d="M0 184.97 L2.35 184.19 L7.94 186.45 L10.58 185.81 L9.21 187.77 L2.45 187.77 L5.29 187.08 L0
										 184.97 L0 184.97 L0 184.97 Z" class="st5"/>
						</g>
						<g id="shape44-67" v:mID="44" v:groupContext="shape" transform="translate(16.1661,-9.28478)">
							<title>Sheet.44</title>
							<path d="M10.53 186.99 L8.18 187.77 L2.6 185.56 L0 186.2 L1.37 184.19 L8.08 184.19 L5.29 184.87 L10.53
										 186.99 L10.53 186.99 L10.53 186.99 Z" class="st5"/>
						</g>
						<g id="shape45-69" v:mID="45" v:groupContext="shape" transform="translate(16.7049,-13.6079)">
							<title>Sheet.45</title>
							<path d="M0 186.99 L2.35 187.77 L7.94 185.56 L10.53 186.2 L9.16 184.19 L2.45 184.19 L5.24 184.87 L0 186.99
										 L0 186.99 L0 186.99 Z" class="st7"/>
						</g>
						<g id="shape46-71" v:mID="46" v:groupContext="shape" transform="translate(5.14375,-9.33391)">
							<title>Sheet.46</title>
							<path d="M10.58 184.97 L8.23 184.19 L2.65 186.45 L0 185.81 L1.42 187.77 L8.13 187.77 L5.29 187.08 L10.58
										 184.97 L10.58 184.97 L10.58 184.97 Z" class="st7"/>
						</g>
						<g id="shape47-73" v:mID="47" v:groupContext="shape" transform="translate(5.73161,-13.7061)">
							<title>Sheet.47</title>
							<path d="M0 184.97 L2.35 184.19 L7.94 186.45 L10.58 185.81 L9.21 187.77 L2.45 187.77 L5.29 187.08 L0
										 184.97 L0 184.97 L0 184.97 Z" class="st7"/>
						</g>
						<g id="shape48-75" v:mID="48" v:groupContext="shape" transform="translate(16.362,-9.08828)">
							<title>Sheet.48</title>
							<path d="M10.53 186.99 L8.18 187.77 L2.6 185.56 L0 186.2 L1.37 184.19 L8.08 184.19 L5.29 184.87 L10.53
										 186.99 L10.53 186.99 L10.53 186.99 Z" class="st7"/>
						</g>
						<g id="shape49-77" v:mID="49" v:groupContext="shape" transform="translate(0.0489881,-5.35471)">
							<title>Sheet.49</title>
							<path d="M0 179.86 L0 187.77" class="st4"/>
						</g>
						<g id="shape50-80" v:mID="50" v:groupContext="shape" transform="translate(32.1362,-5.35471)">
							<title>Sheet.50</title>
							<path d="M0 179.86 L0 187.77" class="st4"/>
						</g>
					</g>
					<g id="group51-83" transform="translate(106.792,2.84217E-14)" v:mID="51" v:groupContext="group">
						<title>Sheet.51</title>
						<g id="shape52-84" v:mID="52" v:groupContext="shape" transform="translate(0.0489881,2.84217E-14)">
							<title>Sheet.52</title>
							<path d="M32.09 182.27 C32.09 182.27 32.09 182.27 32.09 182.27 C32.09 185.32 24.89 187.77 16.07 187.77
										 C7.2 187.77 -0 185.32 0 182.27 C0 179.22 7.2 176.77 16.07 176.77 C24.89 176.77 32.09 179.22
										 32.09 182.27 Z" class="st3"/>
						</g>
						<g id="shape53-86" v:mID="53" v:groupContext="shape" transform="translate(0.0489881,2.84217E-14)">
							<title>Sheet.53</title>
							<path d="M32.09 182.27 C32.09 182.27 32.09 182.27 32.09 182.27 C32.09 185.32 24.89 187.77 16.07 187.77
										 C7.2 187.77 -0 185.32 0 182.27 C0 179.22 7.2 176.77 16.07 176.77 C24.89 176.77 32.09 179.22
										 32.09 182.27" class="st4"/>
						</g>
						<g id="shape54-89" v:mID="54" v:groupContext="shape" transform="translate(1.39888E-14,-5.35471)">
							<title>Sheet.54</title>
							<path d="M0 179.91 L0 187.77 L32.14 187.77 L32.14 179.91 L0 179.91 L0 179.91 L0 179.91 Z" class="st3"/>
						</g>
						<g id="shape55-91" v:mID="55" v:groupContext="shape" transform="translate(0.0489881,-7.86013)">
							<title>Sheet.55</title>
							<path d="M32.09 182.27 C32.09 182.27 32.09 182.27 32.09 182.27 C32.09 185.32 24.89 187.77 16.07 187.77
										 C7.2 187.77 -0 185.32 0 182.27 C0 179.22 7.2 176.77 16.07 176.77 C24.89 176.77 32.09 179.22
										 32.09 182.27 Z" class="st5"/>
						</g>
						<g id="shape56-93" v:mID="56" v:groupContext="shape" transform="translate(0.0489881,-7.86013)">
							<title>Sheet.56</title>
							<path d="M32.09 182.27 C32.09 182.27 32.09 182.27 32.09 182.27 C32.09 185.32 24.89 187.77 16.07 187.77
										 C7.2 187.77 -0 185.32 0 182.27 C0 179.22 7.2 176.77 16.07 176.77 C24.89 176.77 32.09 179.22
										 32.09 182.27" class="st6"/>
						</g>
						<g id="shape57-96" v:mID="57" v:groupContext="shape" transform="translate(16.509,-13.8044)">
							<title>Sheet.57</title>
							<path d="M0 186.99 L2.35 187.77 L7.94 185.56 L10.53 186.2 L9.16 184.19 L2.45 184.19 L5.24 184.87 L0 186.99
										 L0 186.99 L0 186.99 Z" class="st5"/>
						</g>
						<g id="shape58-98" v:mID="58" v:groupContext="shape" transform="translate(4.9478,-9.53041)">
							<title>Sheet.58</title>
							<path d="M10.58 184.97 L8.23 184.19 L2.65 186.45 L0 185.81 L1.42 187.77 L8.13 187.77 L5.29 187.08 L10.58
										 184.97 L10.58 184.97 L10.58 184.97 Z" class="st5"/>
						</g>
						<g id="shape59-100" v:mID="59" v:groupContext="shape" transform="translate(5.53565,-13.9026)">
							<title>Sheet.59</title>
							<path d="M0 184.97 L2.35 184.19 L7.94 186.45 L10.58 185.81 L9.21 187.77 L2.45 187.77 L5.29 187.08 L0
										 184.97 L0 184.97 L0 184.97 Z" class="st5"/>
						</g>
						<g id="shape60-102" v:mID="60" v:groupContext="shape" transform="translate(16.1661,-9.28478)">
							<title>Sheet.60</title>
							<path d="M10.53 186.99 L8.18 187.77 L2.6 185.56 L0 186.2 L1.37 184.19 L8.08 184.19 L5.29 184.87 L10.53
										 186.99 L10.53 186.99 L10.53 186.99 Z" class="st5"/>
						</g>
						<g id="shape61-104" v:mID="61" v:groupContext="shape" transform="translate(16.7049,-13.6079)">
							<title>Sheet.61</title>
							<path d="M0 186.99 L2.35 187.77 L7.94 185.56 L10.53 186.2 L9.16 184.19 L2.45 184.19 L5.24 184.87 L0 186.99
										 L0 186.99 L0 186.99 Z" class="st7"/>
						</g>
						<g id="shape62-106" v:mID="62" v:groupContext="shape" transform="translate(5.14375,-9.33391)">
							<title>Sheet.62</title>
							<path d="M10.58 184.97 L8.23 184.19 L2.65 186.45 L0 185.81 L1.42 187.77 L8.13 187.77 L5.29 187.08 L10.58
										 184.97 L10.58 184.97 L10.58 184.97 Z" class="st7"/>
						</g>
						<g id="shape63-108" v:mID="63" v:groupContext="shape" transform="translate(5.73161,-13.7061)">
							<title>Sheet.63</title>
							<path d="M0 184.97 L2.35 184.19 L7.94 186.45 L10.58 185.81 L9.21 187.77 L2.45 187.77 L5.29 187.08 L0
										 184.97 L0 184.97 L0 184.97 Z" class="st7"/>
						</g>
						<g id="shape64-110" v:mID="64" v:groupContext="shape" transform="translate(16.362,-9.08828)">
							<title>Sheet.64</title>
							<path d="M10.53 186.99 L8.18 187.77 L2.6 185.56 L0 186.2 L1.37 184.19 L8.08 184.19 L5.29 184.87 L10.53
										 186.99 L10.53 186.99 L10.53 186.99 Z" class="st7"/>
						</g>
						<g id="shape65-112" v:mID="65" v:groupContext="shape" transform="translate(0.0489881,-5.35471)">
							<title>Sheet.65</title>
							<path d="M0 179.86 L0 187.77" class="st4"/>
						</g>
						<g id="shape66-115" v:mID="66" v:groupContext="shape" transform="translate(32.1362,-5.35471)">
							<title>Sheet.66</title>
							<path d="M0 179.86 L0 187.77" class="st4"/>
						</g>
					</g>
				</g>
				<g id="group148-118" transform="translate(52.2022,-5.75158)" v:mID="148" v:groupContext="group">
					<title>Sheet.148</title>
					<g id="group67-119" v:mID="67" v:groupContext="group">
						<title>Sheet.67</title>
						<g id="shape68-120" v:mID="68" v:groupContext="shape" transform="translate(0.0489881,2.84217E-14)">
							<title>Sheet.68</title>
							<path d="M32.09 182.27 C32.09 182.27 32.09 182.27 32.09 182.27 C32.09 185.32 24.89 187.77 16.07 187.77
										 C7.2 187.77 -0 185.32 0 182.27 C0 179.22 7.2 176.77 16.07 176.77 C24.89 176.77 32.09 179.22
										 32.09 182.27 Z" class="st3"/>
						</g>
						<g id="shape69-122" v:mID="69" v:groupContext="shape" transform="translate(0.0489881,2.84217E-14)">
							<title>Sheet.69</title>
							<path d="M32.09 182.27 C32.09 182.27 32.09 182.27 32.09 182.27 C32.09 185.32 24.89 187.77 16.07 187.77
										 C7.2 187.77 -0 185.32 0 182.27 C0 179.22 7.2 176.77 16.07 176.77 C24.89 176.77 32.09 179.22
										 32.09 182.27" class="st4"/>
						</g>
						<g id="shape70-125" v:mID="70" v:groupContext="shape" transform="translate(1.39888E-14,-5.35471)">
							<title>Sheet.70</title>
							<path d="M0 179.91 L0 187.77 L32.14 187.77 L32.14 179.91 L0 179.91 L0 179.91 L0 179.91 Z" class="st3"/>
						</g>
						<g id="shape71-127" v:mID="71" v:groupContext="shape" transform="translate(0.0489881,-7.86013)">
							<title>Sheet.71</title>
							<path d="M32.09 182.27 C32.09 182.27 32.09 182.27 32.09 182.27 C32.09 185.32 24.89 187.77 16.07 187.77
										 C7.2 187.77 -0 185.32 0 182.27 C0 179.22 7.2 176.77 16.07 176.77 C24.89 176.77 32.09 179.22
										 32.09 182.27 Z" class="st5"/>
						</g>
						<g id="shape72-129" v:mID="72" v:groupContext="shape" transform="translate(0.0489881,-7.86013)">
							<title>Sheet.72</title>
							<path d="M32.09 182.27 C32.09 182.27 32.09 182.27 32.09 182.27 C32.09 185.32 24.89 187.77 16.07 187.77
										 C7.2 187.77 -0 185.32 0 182.27 C0 179.22 7.2 176.77 16.07 176.77 C24.89 176.77 32.09 179.22
										 32.09 182.27" class="st6"/>
						</g>
						<g id="shape73-132" v:mID="73" v:groupContext="shape" transform="translate(16.509,-13.8044)">
							<title>Sheet.73</title>
							<path d="M0 186.99 L2.35 187.77 L7.94 185.56 L10.53 186.2 L9.16 184.19 L2.45 184.19 L5.24 184.87 L0 186.99
										 L0 186.99 L0 186.99 Z" class="st5"/>
						</g>
						<g id="shape74-134" v:mID="74" v:groupContext="shape" transform="translate(4.9478,-9.53041)">
							<title>Sheet.74</title>
							<path d="M10.58 184.97 L8.23 184.19 L2.65 186.45 L0 185.81 L1.42 187.77 L8.13 187.77 L5.29 187.08 L10.58
										 184.97 L10.58 184.97 L10.58 184.97 Z" class="st5"/>
						</g>
						<g id="shape75-136" v:mID="75" v:groupContext="shape" transform="translate(5.53565,-13.9026)">
							<title>Sheet.75</title>
							<path d="M0 184.97 L2.35 184.19 L7.94 186.45 L10.58 185.81 L9.21 187.77 L2.45 187.77 L5.29 187.08 L0
										 184.97 L0 184.97 L0 184.97 Z" class="st5"/>
						</g>
						<g id="shape76-138" v:mID="76" v:groupContext="shape" transform="translate(16.1661,-9.28478)">
							<title>Sheet.76</title>
							<path d="M10.53 186.99 L8.18 187.77 L2.6 185.56 L0 186.2 L1.37 184.19 L8.08 184.19 L5.29 184.87 L10.53
										 186.99 L10.53 186.99 L10.53 186.99 Z" class="st5"/>
						</g>
						<g id="shape77-140" v:mID="77" v:groupContext="shape" transform="translate(16.7049,-13.6079)">
							<title>Sheet.77</title>
							<path d="M0 186.99 L2.35 187.77 L7.94 185.56 L10.53 186.2 L9.16 184.19 L2.45 184.19 L5.24 184.87 L0 186.99
										 L0 186.99 L0 186.99 Z" class="st7"/>
						</g>
						<g id="shape78-142" v:mID="78" v:groupContext="shape" transform="translate(5.14375,-9.33391)">
							<title>Sheet.78</title>
							<path d="M10.58 184.97 L8.23 184.19 L2.65 186.45 L0 185.81 L1.42 187.77 L8.13 187.77 L5.29 187.08 L10.58
										 184.97 L10.58 184.97 L10.58 184.97 Z" class="st7"/>
						</g>
						<g id="shape79-144" v:mID="79" v:groupContext="shape" transform="translate(5.73161,-13.7061)">
							<title>Sheet.79</title>
							<path d="M0 184.97 L2.35 184.19 L7.94 186.45 L10.58 185.81 L9.21 187.77 L2.45 187.77 L5.29 187.08 L0
										 184.97 L0 184.97 L0 184.97 Z" class="st7"/>
						</g>
						<g id="shape80-146" v:mID="80" v:groupContext="shape" transform="translate(16.362,-9.08828)">
							<title>Sheet.80</title>
							<path d="M10.53 186.99 L8.18 187.77 L2.6 185.56 L0 186.2 L1.37 184.19 L8.08 184.19 L5.29 184.87 L10.53
										 186.99 L10.53 186.99 L10.53 186.99 Z" class="st7"/>
						</g>
						<g id="shape81-148" v:mID="81" v:groupContext="shape" transform="translate(0.0489881,-5.35471)">
							<title>Sheet.81</title>
							<path d="M0 179.86 L0 187.77" class="st4"/>
						</g>
						<g id="shape82-151" v:mID="82" v:groupContext="shape" transform="translate(32.1362,-5.35471)">
							<title>Sheet.82</title>
							<path d="M0 179.86 L0 187.77" class="st4"/>
						</g>
					</g>
					<g id="group83-154" transform="translate(54.4475,0)" v:mID="83" v:groupContext="group">
						<title>Sheet.83</title>
						<g id="shape84-155" v:mID="84" v:groupContext="shape" transform="translate(0.0489881,2.84217E-14)">
							<title>Sheet.84</title>
							<path d="M32.09 182.27 C32.09 182.27 32.09 182.27 32.09 182.27 C32.09 185.32 24.89 187.77 16.07 187.77
										 C7.2 187.77 -0 185.32 0 182.27 C0 179.22 7.2 176.77 16.07 176.77 C24.89 176.77 32.09 179.22
										 32.09 182.27 Z" class="st3"/>
						</g>
						<g id="shape85-157" v:mID="85" v:groupContext="shape" transform="translate(0.0489881,2.84217E-14)">
							<title>Sheet.85</title>
							<path d="M32.09 182.27 C32.09 182.27 32.09 182.27 32.09 182.27 C32.09 185.32 24.89 187.77 16.07 187.77
										 C7.2 187.77 -0 185.32 0 182.27 C0 179.22 7.2 176.77 16.07 176.77 C24.89 176.77 32.09 179.22
										 32.09 182.27" class="st4"/>
						</g>
						<g id="shape86-160" v:mID="86" v:groupContext="shape" transform="translate(1.39888E-14,-5.35471)">
							<title>Sheet.86</title>
							<path d="M0 179.91 L0 187.77 L32.14 187.77 L32.14 179.91 L0 179.91 L0 179.91 L0 179.91 Z" class="st3"/>
						</g>
						<g id="shape87-162" v:mID="87" v:groupContext="shape" transform="translate(0.0489881,-7.86013)">
							<title>Sheet.87</title>
							<path d="M32.09 182.27 C32.09 182.27 32.09 182.27 32.09 182.27 C32.09 185.32 24.89 187.77 16.07 187.77
										 C7.2 187.77 -0 185.32 0 182.27 C0 179.22 7.2 176.77 16.07 176.77 C24.89 176.77 32.09 179.22
										 32.09 182.27 Z" class="st5"/>
						</g>
						<g id="shape88-164" v:mID="88" v:groupContext="shape" transform="translate(0.0489881,-7.86013)">
							<title>Sheet.88</title>
							<path d="M32.09 182.27 C32.09 182.27 32.09 182.27 32.09 182.27 C32.09 185.32 24.89 187.77 16.07 187.77
										 C7.2 187.77 -0 185.32 0 182.27 C0 179.22 7.2 176.77 16.07 176.77 C24.89 176.77 32.09 179.22
										 32.09 182.27" class="st6"/>
						</g>
						<g id="shape89-167" v:mID="89" v:groupContext="shape" transform="translate(16.509,-13.8044)">
							<title>Sheet.89</title>
							<path d="M0 186.99 L2.35 187.77 L7.94 185.56 L10.53 186.2 L9.16 184.19 L2.45 184.19 L5.24 184.87 L0 186.99
										 L0 186.99 L0 186.99 Z" class="st5"/>
						</g>
						<g id="shape90-169" v:mID="90" v:groupContext="shape" transform="translate(4.9478,-9.53041)">
							<title>Sheet.90</title>
							<path d="M10.58 184.97 L8.23 184.19 L2.65 186.45 L0 185.81 L1.42 187.77 L8.13 187.77 L5.29 187.08 L10.58
										 184.97 L10.58 184.97 L10.58 184.97 Z" class="st5"/>
						</g>
						<g id="shape91-171" v:mID="91" v:groupContext="shape" transform="translate(5.53565,-13.9026)">
							<title>Sheet.91</title>
							<path d="M0 184.97 L2.35 184.19 L7.94 186.45 L10.58 185.81 L9.21 187.77 L2.45 187.77 L5.29 187.08 L0
										 184.97 L0 184.97 L0 184.97 Z" class="st5"/>
						</g>
						<g id="shape92-173" v:mID="92" v:groupContext="shape" transform="translate(16.1661,-9.28478)">
							<title>Sheet.92</title>
							<path d="M10.53 186.99 L8.18 187.77 L2.6 185.56 L0 186.2 L1.37 184.19 L8.08 184.19 L5.29 184.87 L10.53
										 186.99 L10.53 186.99 L10.53 186.99 Z" class="st5"/>
						</g>
						<g id="shape93-175" v:mID="93" v:groupContext="shape" transform="translate(16.7049,-13.6079)">
							<title>Sheet.93</title>
							<path d="M0 186.99 L2.35 187.77 L7.94 185.56 L10.53 186.2 L9.16 184.19 L2.45 184.19 L5.24 184.87 L0 186.99
										 L0 186.99 L0 186.99 Z" class="st7"/>
						</g>
						<g id="shape94-177" v:mID="94" v:groupContext="shape" transform="translate(5.14375,-9.33391)">
							<title>Sheet.94</title>
							<path d="M10.58 184.97 L8.23 184.19 L2.65 186.45 L0 185.81 L1.42 187.77 L8.13 187.77 L5.29 187.08 L10.58
										 184.97 L10.58 184.97 L10.58 184.97 Z" class="st7"/>
						</g>
						<g id="shape95-179" v:mID="95" v:groupContext="shape" transform="translate(5.73161,-13.7061)">
							<title>Sheet.95</title>
							<path d="M0 184.97 L2.35 184.19 L7.94 186.45 L10.58 185.81 L9.21 187.77 L2.45 187.77 L5.29 187.08 L0
										 184.97 L0 184.97 L0 184.97 Z" class="st7"/>
						</g>
						<g id="shape96-181" v:mID="96" v:groupContext="shape" transform="translate(16.362,-9.08828)">
							<title>Sheet.96</title>
							<path d="M10.53 186.99 L8.18 187.77 L2.6 185.56 L0 186.2 L1.37 184.19 L8.08 184.19 L5.29 184.87 L10.53
										 186.99 L10.53 186.99 L10.53 186.99 Z" class="st7"/>
						</g>
						<g id="shape97-183" v:mID="97" v:groupContext="shape" transform="translate(0.0489881,-5.35471)">
							<title>Sheet.97</title>
							<path d="M0 179.86 L0 187.77" class="st4"/>
						</g>
						<g id="shape98-186" v:mID="98" v:groupContext="shape" transform="translate(32.1362,-5.35471)">
							<title>Sheet.98</title>
							<path d="M0 179.86 L0 187.77" class="st4"/>
						</g>
					</g>
					<g id="group99-189" transform="translate(108.895,0)" v:mID="99" v:groupContext="group">
						<title>Sheet.99</title>
						<g id="shape100-190" v:mID="100" v:groupContext="shape" transform="translate(0.0489881,2.84217E-14)">
							<title>Sheet.100</title>
							<path d="M32.09 182.27 C32.09 182.27 32.09 182.27 32.09 182.27 C32.09 185.32 24.89 187.77 16.07 187.77
										 C7.2 187.77 -0 185.32 0 182.27 C0 179.22 7.2 176.77 16.07 176.77 C24.89 176.77 32.09 179.22
										 32.09 182.27 Z" class="st3"/>
						</g>
						<g id="shape101-192" v:mID="101" v:groupContext="shape" transform="translate(0.0489881,2.84217E-14)">
							<title>Sheet.101</title>
							<path d="M32.09 182.27 C32.09 182.27 32.09 182.27 32.09 182.27 C32.09 185.32 24.89 187.77 16.07 187.77
										 C7.2 187.77 -0 185.32 0 182.27 C0 179.22 7.2 176.77 16.07 176.77 C24.89 176.77 32.09 179.22
										 32.09 182.27" class="st4"/>
						</g>
						<g id="shape102-195" v:mID="102" v:groupContext="shape" transform="translate(1.39888E-14,-5.35471)">
							<title>Sheet.102</title>
							<path d="M0 179.91 L0 187.77 L32.14 187.77 L32.14 179.91 L0 179.91 L0 179.91 L0 179.91 Z" class="st3"/>
						</g>
						<g id="shape103-197" v:mID="103" v:groupContext="shape" transform="translate(0.0489881,-7.86013)">
							<title>Sheet.103</title>
							<path d="M32.09 182.27 C32.09 182.27 32.09 182.27 32.09 182.27 C32.09 185.32 24.89 187.77 16.07 187.77
										 C7.2 187.77 -0 185.32 0 182.27 C0 179.22 7.2 176.77 16.07 176.77 C24.89 176.77 32.09 179.22
										 32.09 182.27 Z" class="st5"/>
						</g>
						<g id="shape104-199" v:mID="104" v:groupContext="shape" transform="translate(0.0489881,-7.86013)">
							<title>Sheet.104</title>
							<path d="M32.09 182.27 C32.09 182.27 32.09 182.27 32.09 182.27 C32.09 185.32 24.89 187.77 16.07 187.77
										 C7.2 187.77 -0 185.32 0 182.27 C0 179.22 7.2 176.77 16.07 176.77 C24.89 176.77 32.09 179.22
										 32.09 182.27" class="st6"/>
						</g>
						<g id="shape105-202" v:mID="105" v:groupContext="shape" transform="translate(16.509,-13.8044)">
							<title>Sheet.105</title>
							<path d="M0 186.99 L2.35 187.77 L7.94 185.56 L10.53 186.2 L9.16 184.19 L2.45 184.19 L5.24 184.87 L0 186.99
										 L0 186.99 L0 186.99 Z" class="st5"/>
						</g>
						<g id="shape106-204" v:mID="106" v:groupContext="shape" transform="translate(4.9478,-9.53041)">
							<title>Sheet.106</title>
							<path d="M10.58 184.97 L8.23 184.19 L2.65 186.45 L0 185.81 L1.42 187.77 L8.13 187.77 L5.29 187.08 L10.58
										 184.97 L10.58 184.97 L10.58 184.97 Z" class="st5"/>
						</g>
						<g id="shape107-206" v:mID="107" v:groupContext="shape" transform="translate(5.53565,-13.9026)">
							<title>Sheet.107</title>
							<path d="M0 184.97 L2.35 184.19 L7.94 186.45 L10.58 185.81 L9.21 187.77 L2.45 187.77 L5.29 187.08 L0
										 184.97 L0 184.97 L0 184.97 Z" class="st5"/>
						</g>
						<g id="shape108-208" v:mID="108" v:groupContext="shape" transform="translate(16.1661,-9.28478)">
							<title>Sheet.108</title>
							<path d="M10.53 186.99 L8.18 187.77 L2.6 185.56 L0 186.2 L1.37 184.19 L8.08 184.19 L5.29 184.87 L10.53
										 186.99 L10.53 186.99 L10.53 186.99 Z" class="st5"/>
						</g>
						<g id="shape109-210" v:mID="109" v:groupContext="shape" transform="translate(16.7049,-13.6079)">
							<title>Sheet.109</title>
							<path d="M0 186.99 L2.35 187.77 L7.94 185.56 L10.53 186.2 L9.16 184.19 L2.45 184.19 L5.24 184.87 L0 186.99
										 L0 186.99 L0 186.99 Z" class="st7"/>
						</g>
						<g id="shape110-212" v:mID="110" v:groupContext="shape" transform="translate(5.14375,-9.33391)">
							<title>Sheet.110</title>
							<path d="M10.58 184.97 L8.23 184.19 L2.65 186.45 L0 185.81 L1.42 187.77 L8.13 187.77 L5.29 187.08 L10.58
										 184.97 L10.58 184.97 L10.58 184.97 Z" class="st7"/>
						</g>
						<g id="shape111-214" v:mID="111" v:groupContext="shape" transform="translate(5.73161,-13.7061)">
							<title>Sheet.111</title>
							<path d="M0 184.97 L2.35 184.19 L7.94 186.45 L10.58 185.81 L9.21 187.77 L2.45 187.77 L5.29 187.08 L0
										 184.97 L0 184.97 L0 184.97 Z" class="st7"/>
						</g>
						<g id="shape112-216" v:mID="112" v:groupContext="shape" transform="translate(16.362,-9.08828)">
							<title>Sheet.112</title>
							<path d="M10.53 186.99 L8.18 187.77 L2.6 185.56 L0 186.2 L1.37 184.19 L8.08 184.19 L5.29 184.87 L10.53
										 186.99 L10.53 186.99 L10.53 186.99 Z" class="st7"/>
						</g>
						<g id="shape113-218" v:mID="113" v:groupContext="shape" transform="translate(0.0489881,-5.35471)">
							<title>Sheet.113</title>
							<path d="M0 179.86 L0 187.77" class="st4"/>
						</g>
						<g id="shape114-221" v:mID="114" v:groupContext="shape" transform="translate(32.1362,-5.35471)">
							<title>Sheet.114</title>
							<path d="M0 179.86 L0 187.77" class="st4"/>
						</g>
					</g>
					<g id="group115-224" transform="translate(163.343,0)" v:mID="115" v:groupContext="group">
						<title>Sheet.115</title>
						<g id="shape116-225" v:mID="116" v:groupContext="shape" transform="translate(0.0489881,2.84217E-14)">
							<title>Sheet.116</title>
							<path d="M32.09 182.27 C32.09 182.27 32.09 182.27 32.09 182.27 C32.09 185.32 24.89 187.77 16.07 187.77
										 C7.2 187.77 -0 185.32 0 182.27 C0 179.22 7.2 176.77 16.07 176.77 C24.89 176.77 32.09 179.22
										 32.09 182.27 Z" class="st3"/>
						</g>
						<g id="shape117-227" v:mID="117" v:groupContext="shape" transform="translate(0.0489881,2.84217E-14)">
							<title>Sheet.117</title>
							<path d="M32.09 182.27 C32.09 182.27 32.09 182.27 32.09 182.27 C32.09 185.32 24.89 187.77 16.07 187.77
										 C7.2 187.77 -0 185.32 0 182.27 C0 179.22 7.2 176.77 16.07 176.77 C24.89 176.77 32.09 179.22
										 32.09 182.27" class="st4"/>
						</g>
						<g id="shape118-230" v:mID="118" v:groupContext="shape" transform="translate(1.39888E-14,-5.35471)">
							<title>Sheet.118</title>
							<path d="M0 179.91 L0 187.77 L32.14 187.77 L32.14 179.91 L0 179.91 L0 179.91 L0 179.91 Z" class="st3"/>
						</g>
						<g id="shape119-232" v:mID="119" v:groupContext="shape" transform="translate(0.0489881,-7.86013)">
							<title>Sheet.119</title>
							<path d="M32.09 182.27 C32.09 182.27 32.09 182.27 32.09 182.27 C32.09 185.32 24.89 187.77 16.07 187.77
										 C7.2 187.77 -0 185.32 0 182.27 C0 179.22 7.2 176.77 16.07 176.77 C24.89 176.77 32.09 179.22
										 32.09 182.27 Z" class="st5"/>
						</g>
						<g id="shape120-234" v:mID="120" v:groupContext="shape" transform="translate(0.0489881,-7.86013)">
							<title>Sheet.120</title>
							<path d="M32.09 182.27 C32.09 182.27 32.09 182.27 32.09 182.27 C32.09 185.32 24.89 187.77 16.07 187.77
										 C7.2 187.77 -0 185.32 0 182.27 C0 179.22 7.2 176.77 16.07 176.77 C24.89 176.77 32.09 179.22
										 32.09 182.27" class="st6"/>
						</g>
						<g id="shape121-237" v:mID="121" v:groupContext="shape" transform="translate(16.509,-13.8044)">
							<title>Sheet.121</title>
							<path d="M0 186.99 L2.35 187.77 L7.94 185.56 L10.53 186.2 L9.16 184.19 L2.45 184.19 L5.24 184.87 L0 186.99
										 L0 186.99 L0 186.99 Z" class="st5"/>
						</g>
						<g id="shape122-239" v:mID="122" v:groupContext="shape" transform="translate(4.9478,-9.53041)">
							<title>Sheet.122</title>
							<path d="M10.58 184.97 L8.23 184.19 L2.65 186.45 L0 185.81 L1.42 187.77 L8.13 187.77 L5.29 187.08 L10.58
										 184.97 L10.58 184.97 L10.58 184.97 Z" class="st5"/>
						</g>
						<g id="shape123-241" v:mID="123" v:groupContext="shape" transform="translate(5.53565,-13.9026)">
							<title>Sheet.123</title>
							<path d="M0 184.97 L2.35 184.19 L7.94 186.45 L10.58 185.81 L9.21 187.77 L2.45 187.77 L5.29 187.08 L0
										 184.97 L0 184.97 L0 184.97 Z" class="st5"/>
						</g>
						<g id="shape124-243" v:mID="124" v:groupContext="shape" transform="translate(16.1661,-9.28478)">
							<title>Sheet.124</title>
							<path d="M10.53 186.99 L8.18 187.77 L2.6 185.56 L0 186.2 L1.37 184.19 L8.08 184.19 L5.29 184.87 L10.53
										 186.99 L10.53 186.99 L10.53 186.99 Z" class="st5"/>
						</g>
						<g id="shape125-245" v:mID="125" v:groupContext="shape" transform="translate(16.7049,-13.6079)">
							<title>Sheet.125</title>
							<path d="M0 186.99 L2.35 187.77 L7.94 185.56 L10.53 186.2 L9.16 184.19 L2.45 184.19 L5.24 184.87 L0 186.99
										 L0 186.99 L0 186.99 Z" class="st7"/>
						</g>
						<g id="shape126-247" v:mID="126" v:groupContext="shape" transform="translate(5.14375,-9.33391)">
							<title>Sheet.126</title>
							<path d="M10.58 184.97 L8.23 184.19 L2.65 186.45 L0 185.81 L1.42 187.77 L8.13 187.77 L5.29 187.08 L10.58
										 184.97 L10.58 184.97 L10.58 184.97 Z" class="st7"/>
						</g>
						<g id="shape127-249" v:mID="127" v:groupContext="shape" transform="translate(5.73161,-13.7061)">
							<title>Sheet.127</title>
							<path d="M0 184.97 L2.35 184.19 L7.94 186.45 L10.58 185.81 L9.21 187.77 L2.45 187.77 L5.29 187.08 L0
										 184.97 L0 184.97 L0 184.97 Z" class="st7"/>
						</g>
						<g id="shape128-251" v:mID="128" v:groupContext="shape" transform="translate(16.362,-9.08828)">
							<title>Sheet.128</title>
							<path d="M10.53 186.99 L8.18 187.77 L2.6 185.56 L0 186.2 L1.37 184.19 L8.08 184.19 L5.29 184.87 L10.53
										 186.99 L10.53 186.99 L10.53 186.99 Z" class="st7"/>
						</g>
						<g id="shape129-253" v:mID="129" v:groupContext="shape" transform="translate(0.0489881,-5.35471)">
							<title>Sheet.129</title>
							<path d="M0 179.86 L0 187.77" class="st4"/>
						</g>
						<g id="shape130-256" v:mID="130" v:groupContext="shape" transform="translate(32.1362,-5.35471)">
							<title>Sheet.130</title>
							<path d="M0 179.86 L0 187.77" class="st4"/>
						</g>
					</g>
					<g id="group131-259" transform="translate(217.79,0)" v:mID="131" v:groupContext="group">
						<title>Sheet.131</title>
						<g id="shape132-260" v:mID="132" v:groupContext="shape" transform="translate(0.0489881,2.84217E-14)">
							<title>Sheet.132</title>
							<path d="M32.09 182.27 C32.09 182.27 32.09 182.27 32.09 182.27 C32.09 185.32 24.89 187.77 16.07 187.77
										 C7.2 187.77 -0 185.32 0 182.27 C0 179.22 7.2 176.77 16.07 176.77 C24.89 176.77 32.09 179.22
										 32.09 182.27 Z" class="st3"/>
						</g>
						<g id="shape133-262" v:mID="133" v:groupContext="shape" transform="translate(0.0489881,2.84217E-14)">
							<title>Sheet.133</title>
							<path d="M32.09 182.27 C32.09 182.27 32.09 182.27 32.09 182.27 C32.09 185.32 24.89 187.77 16.07 187.77
										 C7.2 187.77 -0 185.32 0 182.27 C0 179.22 7.2 176.77 16.07 176.77 C24.89 176.77 32.09 179.22
										 32.09 182.27" class="st4"/>
						</g>
						<g id="shape134-265" v:mID="134" v:groupContext="shape" transform="translate(1.39888E-14,-5.35471)">
							<title>Sheet.134</title>
							<path d="M0 179.91 L0 187.77 L32.14 187.77 L32.14 179.91 L0 179.91 L0 179.91 L0 179.91 Z" class="st3"/>
						</g>
						<g id="shape135-267" v:mID="135" v:groupContext="shape" transform="translate(0.0489881,-7.86013)">
							<title>Sheet.135</title>
							<path d="M32.09 182.27 C32.09 182.27 32.09 182.27 32.09 182.27 C32.09 185.32 24.89 187.77 16.07 187.77
										 C7.2 187.77 -0 185.32 0 182.27 C0 179.22 7.2 176.77 16.07 176.77 C24.89 176.77 32.09 179.22
										 32.09 182.27 Z" class="st5"/>
						</g>
						<g id="shape136-269" v:mID="136" v:groupContext="shape" transform="translate(0.0489881,-7.86013)">
							<title>Sheet.136</title>
							<path d="M32.09 182.27 C32.09 182.27 32.09 182.27 32.09 182.27 C32.09 185.32 24.89 187.77 16.07 187.77
										 C7.2 187.77 -0 185.32 0 182.27 C0 179.22 7.2 176.77 16.07 176.77 C24.89 176.77 32.09 179.22
										 32.09 182.27" class="st6"/>
						</g>
						<g id="shape137-272" v:mID="137" v:groupContext="shape" transform="translate(16.509,-13.8044)">
							<title>Sheet.137</title>
							<path d="M0 186.99 L2.35 187.77 L7.94 185.56 L10.53 186.2 L9.16 184.19 L2.45 184.19 L5.24 184.87 L0 186.99
										 L0 186.99 L0 186.99 Z" class="st5"/>
						</g>
						<g id="shape138-274" v:mID="138" v:groupContext="shape" transform="translate(4.9478,-9.53041)">
							<title>Sheet.138</title>
							<path d="M10.58 184.97 L8.23 184.19 L2.65 186.45 L0 185.81 L1.42 187.77 L8.13 187.77 L5.29 187.08 L10.58
										 184.97 L10.58 184.97 L10.58 184.97 Z" class="st5"/>
						</g>
						<g id="shape139-276" v:mID="139" v:groupContext="shape" transform="translate(5.53565,-13.9026)">
							<title>Sheet.139</title>
							<path d="M0 184.97 L2.35 184.19 L7.94 186.45 L10.58 185.81 L9.21 187.77 L2.45 187.77 L5.29 187.08 L0
										 184.97 L0 184.97 L0 184.97 Z" class="st5"/>
						</g>
						<g id="shape140-278" v:mID="140" v:groupContext="shape" transform="translate(16.1661,-9.28478)">
							<title>Sheet.140</title>
							<path d="M10.53 186.99 L8.18 187.77 L2.6 185.56 L0 186.2 L1.37 184.19 L8.08 184.19 L5.29 184.87 L10.53
										 186.99 L10.53 186.99 L10.53 186.99 Z" class="st5"/>
						</g>
						<g id="shape141-280" v:mID="141" v:groupContext="shape" transform="translate(16.7049,-13.6079)">
							<title>Sheet.141</title>
							<path d="M0 186.99 L2.35 187.77 L7.94 185.56 L10.53 186.2 L9.16 184.19 L2.45 184.19 L5.24 184.87 L0 186.99
										 L0 186.99 L0 186.99 Z" class="st7"/>
						</g>
						<g id="shape142-282" v:mID="142" v:groupContext="shape" transform="translate(5.14375,-9.33391)">
							<title>Sheet.142</title>
							<path d="M10.58 184.97 L8.23 184.19 L2.65 186.45 L0 185.81 L1.42 187.77 L8.13 187.77 L5.29 187.08 L10.58
										 184.97 L10.58 184.97 L10.58 184.97 Z" class="st7"/>
						</g>
						<g id="shape143-284" v:mID="143" v:groupContext="shape" transform="translate(5.73161,-13.7061)">
							<title>Sheet.143</title>
							<path d="M0 184.97 L2.35 184.19 L7.94 186.45 L10.58 185.81 L9.21 187.77 L2.45 187.77 L5.29 187.08 L0
										 184.97 L0 184.97 L0 184.97 Z" class="st7"/>
						</g>
						<g id="shape144-286" v:mID="144" v:groupContext="shape" transform="translate(16.362,-9.08828)">
							<title>Sheet.144</title>
							<path d="M10.53 186.99 L8.18 187.77 L2.6 185.56 L0 186.2 L1.37 184.19 L8.08 184.19 L5.29 184.87 L10.53
										 186.99 L10.53 186.99 L10.53 186.99 Z" class="st7"/>
						</g>
						<g id="shape145-288" v:mID="145" v:groupContext="shape" transform="translate(0.0489881,-5.35471)">
							<title>Sheet.145</title>
							<path d="M0 179.86 L0 187.77" class="st4"/>
						</g>
						<g id="shape146-291" v:mID="146" v:groupContext="shape" transform="translate(32.1362,-5.35471)">
							<title>Sheet.146</title>
							<path d="M0 179.86 L0 187.77" class="st4"/>
						</g>
					</g>
				</g>
				<g id="group181-294" transform="translate(134.399,-87.6302)" v:mID="181" v:groupContext="group">
					<title>Sheet.181</title>
					<g id="group149-295" v:mID="149" v:groupContext="group">
						<title>Sheet.149</title>
						<g id="shape150-296" v:mID="150" v:groupContext="shape" transform="translate(0.0489881,2.84217E-14)">
							<title>Sheet.150</title>
							<path d="M32.09 182.27 C32.09 182.27 32.09 182.27 32.09 182.27 C32.09 185.32 24.89 187.77 16.07 187.77
										 C7.2 187.77 -0 185.32 0 182.27 C0 179.22 7.2 176.77 16.07 176.77 C24.89 176.77 32.09 179.22
										 32.09 182.27 Z" class="st3"/>
						</g>
						<g id="shape151-298" v:mID="151" v:groupContext="shape" transform="translate(0.0489881,2.84217E-14)">
							<title>Sheet.151</title>
							<path d="M32.09 182.27 C32.09 182.27 32.09 182.27 32.09 182.27 C32.09 185.32 24.89 187.77 16.07 187.77
										 C7.2 187.77 -0 185.32 0 182.27 C0 179.22 7.2 176.77 16.07 176.77 C24.89 176.77 32.09 179.22
										 32.09 182.27" class="st4"/>
						</g>
						<g id="shape152-301" v:mID="152" v:groupContext="shape" transform="translate(1.39888E-14,-5.35471)">
							<title>Sheet.152</title>
							<path d="M0 179.91 L0 187.77 L32.14 187.77 L32.14 179.91 L0 179.91 L0 179.91 L0 179.91 Z" class="st3"/>
						</g>
						<g id="shape153-303" v:mID="153" v:groupContext="shape" transform="translate(0.0489881,-7.86013)">
							<title>Sheet.153</title>
							<path d="M32.09 182.27 C32.09 182.27 32.09 182.27 32.09 182.27 C32.09 185.32 24.89 187.77 16.07 187.77
										 C7.2 187.77 -0 185.32 0 182.27 C0 179.22 7.2 176.77 16.07 176.77 C24.89 176.77 32.09 179.22
										 32.09 182.27 Z" class="st5"/>
						</g>
						<g id="shape154-305" v:mID="154" v:groupContext="shape" transform="translate(0.0489881,-7.86013)">
							<title>Sheet.154</title>
							<path d="M32.09 182.27 C32.09 182.27 32.09 182.27 32.09 182.27 C32.09 185.32 24.89 187.77 16.07 187.77
										 C7.2 187.77 -0 185.32 0 182.27 C0 179.22 7.2 176.77 16.07 176.77 C24.89 176.77 32.09 179.22
										 32.09 182.27" class="st6"/>
						</g>
						<g id="shape155-308" v:mID="155" v:groupContext="shape" transform="translate(16.509,-13.8044)">
							<title>Sheet.155</title>
							<path d="M0 186.99 L2.35 187.77 L7.94 185.56 L10.53 186.2 L9.16 184.19 L2.45 184.19 L5.24 184.87 L0 186.99
										 L0 186.99 L0 186.99 Z" class="st5"/>
						</g>
						<g id="shape156-310" v:mID="156" v:groupContext="shape" transform="translate(4.9478,-9.53041)">
							<title>Sheet.156</title>
							<path d="M10.58 184.97 L8.23 184.19 L2.65 186.45 L0 185.81 L1.42 187.77 L8.13 187.77 L5.29 187.08 L10.58
										 184.97 L10.58 184.97 L10.58 184.97 Z" class="st5"/>
						</g>
						<g id="shape157-312" v:mID="157" v:groupContext="shape" transform="translate(5.53565,-13.9026)">
							<title>Sheet.157</title>
							<path d="M0 184.97 L2.35 184.19 L7.94 186.45 L10.58 185.81 L9.21 187.77 L2.45 187.77 L5.29 187.08 L0
										 184.97 L0 184.97 L0 184.97 Z" class="st5"/>
						</g>
						<g id="shape158-314" v:mID="158" v:groupContext="shape" transform="translate(16.1661,-9.28478)">
							<title>Sheet.158</title>
							<path d="M10.53 186.99 L8.18 187.77 L2.6 185.56 L0 186.2 L1.37 184.19 L8.08 184.19 L5.29 184.87 L10.53
										 186.99 L10.53 186.99 L10.53 186.99 Z" class="st5"/>
						</g>
						<g id="shape159-316" v:mID="159" v:groupContext="shape" transform="translate(16.7049,-13.6079)">
							<title>Sheet.159</title>
							<path d="M0 186.99 L2.35 187.77 L7.94 185.56 L10.53 186.2 L9.16 184.19 L2.45 184.19 L5.24 184.87 L0 186.99
										 L0 186.99 L0 186.99 Z" class="st7"/>
						</g>
						<g id="shape160-318" v:mID="160" v:groupContext="shape" transform="translate(5.14375,-9.33391)">
							<title>Sheet.160</title>
							<path d="M10.58 184.97 L8.23 184.19 L2.65 186.45 L0 185.81 L1.42 187.77 L8.13 187.77 L5.29 187.08 L10.58
										 184.97 L10.58 184.97 L10.58 184.97 Z" class="st7"/>
						</g>
						<g id="shape161-320" v:mID="161" v:groupContext="shape" transform="translate(5.73161,-13.7061)">
							<title>Sheet.161</title>
							<path d="M0 184.97 L2.35 184.19 L7.94 186.45 L10.58 185.81 L9.21 187.77 L2.45 187.77 L5.29 187.08 L0
										 184.97 L0 184.97 L0 184.97 Z" class="st7"/>
						</g>
						<g id="shape162-322" v:mID="162" v:groupContext="shape" transform="translate(16.362,-9.08828)">
							<title>Sheet.162</title>
							<path d="M10.53 186.99 L8.18 187.77 L2.6 185.56 L0 186.2 L1.37 184.19 L8.08 184.19 L5.29 184.87 L10.53
										 186.99 L10.53 186.99 L10.53 186.99 Z" class="st7"/>
						</g>
						<g id="shape163-324" v:mID="163" v:groupContext="shape" transform="translate(0.0489881,-5.35471)">
							<title>Sheet.163</title>
							<path d="M0 179.86 L0 187.77" class="st4"/>
						</g>
						<g id="shape164-327" v:mID="164" v:groupContext="shape" transform="translate(32.1362,-5.35471)">
							<title>Sheet.164</title>
							<path d="M0 179.86 L0 187.77" class="st4"/>
						</g>
					</g>
					<g id="group165-330" transform="translate(53.396,2.84217E-14)" v:mID="165" v:groupContext="group">
						<title>Sheet.165</title>
						<g id="shape166-331" v:mID="166" v:groupContext="shape" transform="translate(0.0489881,2.84217E-14)">
							<title>Sheet.166</title>
							<path d="M32.09 182.27 C32.09 182.27 32.09 182.27 32.09 182.27 C32.09 185.32 24.89 187.77 16.07 187.77
										 C7.2 187.77 -0 185.32 0 182.27 C0 179.22 7.2 176.77 16.07 176.77 C24.89 176.77 32.09 179.22
										 32.09 182.27 Z" class="st3"/>
						</g>
						<g id="shape167-333" v:mID="167" v:groupContext="shape" transform="translate(0.0489881,2.84217E-14)">
							<title>Sheet.167</title>
							<path d="M32.09 182.27 C32.09 182.27 32.09 182.27 32.09 182.27 C32.09 185.32 24.89 187.77 16.07 187.77
										 C7.2 187.77 -0 185.32 0 182.27 C0 179.22 7.2 176.77 16.07 176.77 C24.89 176.77 32.09 179.22
										 32.09 182.27" class="st4"/>
						</g>
						<g id="shape168-336" v:mID="168" v:groupContext="shape" transform="translate(1.39888E-14,-5.35471)">
							<title>Sheet.168</title>
							<path d="M0 179.91 L0 187.77 L32.14 187.77 L32.14 179.91 L0 179.91 L0 179.91 L0 179.91 Z" class="st3"/>
						</g>
						<g id="shape169-338" v:mID="169" v:groupContext="shape" transform="translate(0.0489881,-7.86013)">
							<title>Sheet.169</title>
							<path d="M32.09 182.27 C32.09 182.27 32.09 182.27 32.09 182.27 C32.09 185.32 24.89 187.77 16.07 187.77
										 C7.2 187.77 -0 185.32 0 182.27 C0 179.22 7.2 176.77 16.07 176.77 C24.89 176.77 32.09 179.22
										 32.09 182.27 Z" class="st5"/>
						</g>
						<g id="shape170-340" v:mID="170" v:groupContext="shape" transform="translate(0.0489881,-7.86013)">
							<title>Sheet.170</title>
							<path d="M32.09 182.27 C32.09 182.27 32.09 182.27 32.09 182.27 C32.09 185.32 24.89 187.77 16.07 187.77
										 C7.2 187.77 -0 185.32 0 182.27 C0 179.22 7.2 176.77 16.07 176.77 C24.89 176.77 32.09 179.22
										 32.09 182.27" class="st6"/>
						</g>
						<g id="shape171-343" v:mID="171" v:groupContext="shape" transform="translate(16.509,-13.8044)">
							<title>Sheet.171</title>
							<path d="M0 186.99 L2.35 187.77 L7.94 185.56 L10.53 186.2 L9.16 184.19 L2.45 184.19 L5.24 184.87 L0 186.99
										 L0 186.99 L0 186.99 Z" class="st5"/>
						</g>
						<g id="shape172-345" v:mID="172" v:groupContext="shape" transform="translate(4.9478,-9.53041)">
							<title>Sheet.172</title>
							<path d="M10.58 184.97 L8.23 184.19 L2.65 186.45 L0 185.81 L1.42 187.77 L8.13 187.77 L5.29 187.08 L10.58
										 184.97 L10.58 184.97 L10.58 184.97 Z" class="st5"/>
						</g>
						<g id="shape173-347" v:mID="173" v:groupContext="shape" transform="translate(5.53565,-13.9026)">
							<title>Sheet.173</title>
							<path d="M0 184.97 L2.35 184.19 L7.94 186.45 L10.58 185.81 L9.21 187.77 L2.45 187.77 L5.29 187.08 L0
										 184.97 L0 184.97 L0 184.97 Z" class="st5"/>
						</g>
						<g id="shape174-349" v:mID="174" v:groupContext="shape" transform="translate(16.1661,-9.28478)">
							<title>Sheet.174</title>
							<path d="M10.53 186.99 L8.18 187.77 L2.6 185.56 L0 186.2 L1.37 184.19 L8.08 184.19 L5.29 184.87 L10.53
										 186.99 L10.53 186.99 L10.53 186.99 Z" class="st5"/>
						</g>
						<g id="shape175-351" v:mID="175" v:groupContext="shape" transform="translate(16.7049,-13.6079)">
							<title>Sheet.175</title>
							<path d="M0 186.99 L2.35 187.77 L7.94 185.56 L10.53 186.2 L9.16 184.19 L2.45 184.19 L5.24 184.87 L0 186.99
										 L0 186.99 L0 186.99 Z" class="st7"/>
						</g>
						<g id="shape176-353" v:mID="176" v:groupContext="shape" transform="translate(5.14375,-9.33391)">
							<title>Sheet.176</title>
							<path d="M10.58 184.97 L8.23 184.19 L2.65 186.45 L0 185.81 L1.42 187.77 L8.13 187.77 L5.29 187.08 L10.58
										 184.97 L10.58 184.97 L10.58 184.97 Z" class="st7"/>
						</g>
						<g id="shape177-355" v:mID="177" v:groupContext="shape" transform="translate(5.73161,-13.7061)">
							<title>Sheet.177</title>
							<path d="M0 184.97 L2.35 184.19 L7.94 186.45 L10.58 185.81 L9.21 187.77 L2.45 187.77 L5.29 187.08 L0
										 184.97 L0 184.97 L0 184.97 Z" class="st7"/>
						</g>
						<g id="shape178-357" v:mID="178" v:groupContext="shape" transform="translate(16.362,-9.08828)">
							<title>Sheet.178</title>
							<path d="M10.53 186.99 L8.18 187.77 L2.6 185.56 L0 186.2 L1.37 184.19 L8.08 184.19 L5.29 184.87 L10.53
										 186.99 L10.53 186.99 L10.53 186.99 Z" class="st7"/>
						</g>
						<g id="shape179-359" v:mID="179" v:groupContext="shape" transform="translate(0.0489881,-5.35471)">
							<title>Sheet.179</title>
							<path d="M0 179.86 L0 187.77" class="st4"/>
						</g>
						<g id="shape180-362" v:mID="180" v:groupContext="shape" transform="translate(32.1362,-5.35471)">
							<title>Sheet.180</title>
							<path d="M0 179.86 L0 187.77" class="st4"/>
						</g>
					</g>
				</g>
				<g id="group220-365" transform="translate(144.789,-123.339)" v:mID="220" v:groupContext="group">
					<title>Sheet.220</title>
					<g id="shape183-366" v:mID="183" v:groupContext="shape" transform="translate(-2.79776E-14,-16.0117)">
						<title>Sheet.183</title>
						<path d="M25.5 187.71 C25.5 187.71 0 178.16 0.01 177.96 L0.62 159.81 C0.63 159.56 0.87 159.4 1.1 159.49 L26.1
									 168.72 C26.3 168.8 26.43 169 26.43 169.21 L25.82 187.5 C25.81 187.66 25.65 187.77 25.5 187.71
									 Z" class="st8"/>
					</g>
					<g id="shape184-368" v:mID="184" v:groupContext="shape" transform="translate(2.86462,-16.0117)">
						<title>Sheet.184</title>
						<path d="M0 179.38 L22.63 187.71 C22.78 187.77 22.95 187.66 22.95 187.5 L23.56 169.21 L19.48 167.67 L0 179.38
									 Z" class="st9"/>
					</g>
					<g id="shape185-370" v:mID="185" v:groupContext="shape" transform="translate(0.0107895,-16.0117)">
						<title>Sheet.185</title>
						<path d="M25.48 187.71 L0.3 178.41 a0.460713 0.460713 0 0 1 -0.296712 -0.442371 L0.6 159.81 C0.62 159.56
									 0.86 159.4 1.08 159.49 L26.09 168.72 C26.29 168.8 26.42 169 26.42 169.21 L25.81 187.5 C25.8
									 187.66 25.64 187.77 25.48 187.71 Z" class="st10"/>
					</g>
					<g id="shape186-372" v:mID="186" v:groupContext="shape" transform="translate(0.318291,-25.4417)">
						<title>Sheet.186</title>
						<path d="M25.81 187.77 L0 178.23 L25.81 187.77 Z" class="st11"/>
						<path d="M25.81 187.77 L0 178.23" class="st12"/>
					</g>
					<g id="shape187-375" v:mID="187" v:groupContext="shape" transform="translate(13.1578,-20.7105)">
						<title>Sheet.187</title>
						<path d="M0.63 169.42 L0 187.77 L0.63 169.42 Z" class="st11"/>
						<path d="M0.63 169.42 L0 187.77" class="st12"/>
					</g>
					<g id="shape188-378" v:mID="188" v:groupContext="shape" transform="translate(6.41977,-22.9439)">
						<title>Sheet.188</title>
						<path d="M0.57 168.78 L0 187.77 L0.57 168.78 Z" class="st11"/>
						<path d="M0.57 168.78 L0 187.77" class="st12"/>
					</g>
					<g id="shape189-381" v:mID="189" v:groupContext="shape" transform="translate(19.9498,-18.1965)">
						<title>Sheet.189</title>
						<path d="M0.57 168.65 L0 187.77 L0.57 168.65 Z" class="st11"/>
						<path d="M0.57 168.65 L0 187.77" class="st12"/>
					</g>
					<g id="shape190-384" v:mID="190" v:groupContext="shape" transform="translate(42.5269,-27.5187)">
						<title>Sheet.190</title>
						<path d="M0 179.49 L0.79 178.15 C1.11 177.6 1.77 177.34 2.37 177.54 C3.47 177.91 5.18 178.85 6.39 181.25
									 C7.62 183.67 7.43 185.63 7.13 186.74 A1.36488 1.36488 0 0 1 5.85 187.75 L4.75 187.77 L0 179.49
									 Z" class="st13"/>
					</g>
					<g id="shape191-386" v:mID="191" v:groupContext="shape" transform="translate(45.7638,-27.5133)">
						<title>Sheet.191</title>
						<path d="M1.26 180.29 C0.92 180.73 1.31 182.81 0.85 183.32 C0.63 183.56 0.31 183.8 0 183.67 L1.24 187.77
									 L2.62 187.75 A1.35409 1.35409 -180 0 0 3.91 186.74 C4.2 185.63 4.39 183.67 3.17 181.25 C3 180.94
									 2.06 179.25 1.26 180.29 Z" class="st14"/>
					</g>
					<g id="shape192-388" v:mID="192" v:groupContext="shape" transform="translate(23.5913,-10.3148)">
						<title>Sheet.192</title>
						<path d="M22.43 163.62 L11.43 159.43 L0 164.81 L3.2 187.77 L15.17 182.66 L24.29 175.23 L22.43 163.62 Z"
								class="st15"/>
					</g>
					<g id="shape193-390" v:mID="193" v:groupContext="shape" transform="translate(26.9037,-10.1044)">
						<title>Sheet.193</title>
						<path d="M19.11 163.4 L7.61 168.76 L0 187.77 L11.97 182.66 L21.09 175.23 L19.11 163.4 Z" class="st16"/>
					</g>
					<g id="shape194-392" v:mID="194" v:groupContext="shape" transform="translate(14.4202,-10.0289)">
						<title>Sheet.194</title>
						<path d="M20.11 168.74 L9.12 164.55 L0 171.97 L1.87 183.59 L12.86 187.77 L21.98 180.35 L20.11 168.74 Z"
								class="st17"/>
					</g>
					<g id="shape195-394" v:mID="195" v:groupContext="shape" transform="translate(24.8915,-9.94795)">
						<title>Sheet.195</title>
						<path d="M23.22 175.06 L11.45 180.28 L9.6 181.82 C9.6 181.74 9.92 178.11 6.95 173.69 C4.82 170.51 0 168.73
									 0 168.73 L2.4 187.77 L14.36 182.66 L23.22 175.06 Z" class="st14"/>
					</g>
					<g id="group196-396" transform="translate(38.319,5.68434E-14)" v:mID="196" v:groupContext="group">
						<title>Sheet.196</title>
						<g id="shape197-397" v:mID="197" v:groupContext="shape">
							<title>Sheet.197</title>
							<path d="M25.5 187.71 C25.5 187.71 0 178.16 0.01 177.96 L0.62 159.8 C0.63 159.56 0.87 159.4 1.1 159.48
										 L26.1 168.72 C26.3 168.79 26.43 168.99 26.43 169.21 L25.82 187.5 C25.81 187.66 25.65 187.77
										 25.5 187.71 Z" class="st18"/>
						</g>
						<g id="shape198-399" v:mID="198" v:groupContext="shape" transform="translate(2.86462,2.84217E-14)">
							<title>Sheet.198</title>
							<path d="M0 179.38 L22.63 187.71 C22.78 187.77 22.95 187.66 22.95 187.5 L23.56 168.8 L19.79 167.49 L0
										 179.38 Z" class="st18"/>
						</g>
						<g id="shape199-401" v:mID="199" v:groupContext="shape" transform="translate(0.0107895,2.84217E-14)">
							<title>Sheet.199</title>
							<path d="M25.48 187.71 L0.3 178.41 a0.462871 0.462871 0 0 1 -0.296712 -0.447766 L0.6 159.8 C0.62 159.56
										 0.86 159.4 1.08 159.48 L26.09 168.72 C26.29 168.79 26.42 168.99 26.42 169.21 L25.81 187.5
										 C25.8 187.66 25.64 187.77 25.48 187.71 Z" class="st18"/>
						</g>
						<g id="shape200-403" v:mID="200" v:groupContext="shape" transform="translate(0.318291,-9.43545)">
							<title>Sheet.200</title>
							<path d="M25.81 187.77 L0 178.23 L25.81 187.77 Z" class="st19"/>
							<path d="M25.81 187.77 L0 178.23" class="st20"/>
						</g>
						<g id="shape201-406" v:mID="201" v:groupContext="shape" transform="translate(13.1578,-4.69884)">
							<title>Sheet.201</title>
							<path d="M0.63 169.42 L0 187.77 L0.63 169.42 Z" class="st19"/>
							<path d="M0.63 169.42 L0 187.77" class="st20"/>
						</g>
						<g id="shape202-409" v:mID="202" v:groupContext="shape" transform="translate(6.41977,-6.93767)">
							<title>Sheet.202</title>
							<path d="M0.57 168.78 L0 187.77 L0.57 168.78 Z" class="st19"/>
							<path d="M0.57 168.78 L0 187.77" class="st20"/>
						</g>
						<g id="shape203-412" v:mID="203" v:groupContext="shape" transform="translate(19.9498,-2.18488)">
							<title>Sheet.203</title>
							<path d="M0.57 168.65 L0 187.77 L0.57 168.65 Z" class="st19"/>
							<path d="M0.57 168.65 L0 187.77" class="st20"/>
						</g>
					</g>
					<g id="shape204-415" v:mID="204" v:groupContext="shape" transform="translate(31.8993,-32.6761)">
						<title>Sheet.204</title>
						<path d="M6.43 185.03 C6.43 184.19 4.99 183.49 3.22 183.49 C1.44 183.49 0 184.18 0 185.03 L0 186.24 C0 187.08
									 1.44 187.77 3.22 187.77 C4.99 187.77 6.43 187.09 6.43 186.24 L6.43 185.03 Z" class="st16"/>
					</g>
					<g id="shape205-417" v:mID="205" v:groupContext="shape" transform="translate(31.8993,-33.8791)">
						<title>Sheet.205</title>
						<ellipse cx="3.21528" cy="186.235" rx="3.21528" ry="1.53751" class="st16"/>
					</g>
					<g id="shape206-419" v:mID="206" v:groupContext="shape" transform="translate(32.4118,-34.3377)">
						<title>Sheet.206</title>
						<ellipse cx="2.70278" cy="186.586" rx="2.70278" ry="1.18685" class="st15"/>
					</g>
					<g id="shape207-421" v:mID="207" v:groupContext="shape" transform="translate(34.6128,-35.2926)">
						<title>Sheet.207</title>
						<path d="M1.01 187.56 C1.01 187.56 0.91 187.77 0.51 187.77 C0.1 187.77 0 187.56 0 187.56 C0 187.56 0.15 182.01
									 0.19 181.65 C0.23 181.29 0.74 181.3 0.76 181.65 C0.77 182 1.01 187.56 1.01 187.56 Z"
								class="st16"/>
					</g>
					<g id="shape208-423" v:mID="208" v:groupContext="shape" transform="translate(33.6957,-32.3956)">
						<title>Sheet.208</title>
						<path d="M4.63 184.75 C4.63 184.75 4.43 185.63 2.65 185.99 C1.34 186.25 0.4 186.14 0.17 186.83 C0 187.35
									 1.24 187.77 2.99 187.3 C4.57 186.87 4.63 186.08 4.63 185.96 L4.63 184.75 Z" class="st13"/>
					</g>
					<g id="group209-425" transform="translate(10.0828,-4.7487)" v:mID="209" v:groupContext="group">
						<title>Sheet.209</title>
						<g id="shape210-426" v:mID="210" v:groupContext="shape" transform="translate(7.5257,-2.09726)">
							<title>Sheet.210</title>
							<path d="M9.34 187.77 L0 162.99 C4.07 161.46 11.63 164.94 14.21 171.78 C16.79 178.62 13.41 186.24 9.34
										 187.77 Z" class="st21"/>
						</g>
						<g id="shape211-428" v:mID="211" v:groupContext="shape" transform="translate(15.661,-2.09726)">
							<title>Sheet.211</title>
							<path d="M0 184.57 L1.21 187.77 C5.28 186.24 8.66 178.63 6.07 171.78 C5.86 171.21 5.61 170.66 5.32 170.13
										 C6.34 174.93 4.46 180.88 0 184.57 Z" class="st21"/>
						</g>
						<g id="shape212-430" v:mID="212" v:groupContext="shape"
								transform="translate(-56.2568,12.0675) rotate(-20.653)">
							<title>Sheet.212</title>
							<ellipse cx="7.14807" cy="175.041" rx="7.14807" ry="12.7316" class="st22"/>
						</g>
						<g id="shape213-432" v:mID="213" v:groupContext="shape" transform="translate(4.6341,-5.41504)">
							<title>Sheet.213</title>
							<path d="M3.12 177.94 C1.22 174.4 0 169.1 2.35 167.13 C4.82 165.04 8.32 167.49 10.08 169.05 C11.06 169.92
										 11.57 170.59 12.08 171.28 C14.97 175.22 17.46 182.97 14.12 185.8 C11.8 187.77 5.95 183.24
										 3.12 177.94 Z" class="st23"/>
						</g>
						<g id="shape214-434" v:mID="214" v:groupContext="shape" transform="translate(2.55172,-0.673043)">
							<title>Sheet.214</title>
							<path d="M3.3 176.35 C0.98 170.17 1.92 163.87 5.36 162.57 C8.8 161.28 13.66 165.4 15.99 171.57 C18.32
										 177.74 17.38 184.04 13.93 185.34 C10.49 186.63 5.63 182.52 3.3 176.35 ZM2.58 176.62 C5.16
										 183.47 10.55 187.77 14.61 186.24 C18.68 184.7 19.89 177.91 17.31 171.06 C14.72 164.22 9.34
										 159.92 5.27 161.45 C1.2 162.98 0 169.78 2.58 176.62 Z" class="st21"/>
						</g>
						<g id="shape215-436" v:mID="215" v:groupContext="shape" transform="translate(2.18488,-10.799)">
							<title>Sheet.215</title>
							<path d="M0 187.77 L14.06 181.55 L0 187.77 Z" class="st19"/>
							<path d="M0 187.77 L14.06 181.55" class="st24"/>
						</g>
						<g id="shape216-439" v:mID="216" v:groupContext="shape" transform="translate(2.18488,-10.799)">
							<title>Sheet.216</title>
							<path d="M0 187.77 L8.19 178.6 L0 187.77 Z" class="st19"/>
							<path d="M0 187.77 L8.19 178.6" class="st24"/>
						</g>
						<g id="shape217-442" v:mID="217" v:groupContext="shape" transform="translate(2.18488,-8.88927)">
							<title>Sheet.217</title>
							<path d="M0 185.86 L12.54 187.77 L0 185.86 Z" class="st19"/>
							<path d="M0 185.86 L12.54 187.77" class="st24"/>
						</g>
						<g id="shape218-445" v:mID="218" v:groupContext="shape" transform="translate(-2.44804E-14,-9.21835)">
							<title>Sheet.218</title>
							<path d="M3.09 185.22 L3.52 186.34 a0.458555 0.458555 0 0 1 -0.269738 0.593424 L1.02 187.77 a0.458555
										 0.458555 0 0 1 -0.593424 -0.269738 L0 186.38 a0.458555 0.458555 0 0 1 0.269738 -0.593424
										 L2.5 184.95 a0.458555 0.458555 0 0 1 0.593424 0.264344 Z" class="st21"/>
						</g>
					</g>
				</g>
				<g id="shape221-447" v:mID="221" v:groupContext="shape" transform="translate(326.84,155.372) rotate(120.964)">
					<title>Sheet.221</title>
					<path d="M0 187.77 L19.91 187.77" class="st25"/>
				</g>
				<g id="shape222-453" v:mID="222" v:groupContext="shape" transform="translate(323.97,-62.2229) rotate(49.6583)">
					<title>Sheet.222</title>
					<path d="M0 187.77 L22.27 187.77" class="st25"/>
				</g>
				<g id="shape223-458" v:mID="223" v:groupContext="shape" transform="translate(293.633,217.293) rotate(128.157)">
					<title>Sheet.223</title>
					<path d="M0 187.77 L20.35 187.77" class="st25"/>
				</g>
				<g id="shape225-463" v:mID="225" v:groupContext="shape" transform="translate(363.688,-12.1044) rotate(52.8533)">
					<title>Sheet.225</title>
					<path d="M0 187.77 L18.59 187.77" class="st25"/>
				</g>
				<g id="shape226-468" v:mID="226" v:groupContext="shape" transform="translate(283.011,-31.4917) rotate(45)">
					<title>Sheet.226</title>
					<path d="M0 187.77 L23.58 187.77" class="st25"/>
				</g>
				<g id="shape233-473" v:mID="233" v:groupContext="shape" transform="translate(310.513,142.386) rotate(90)">
					<title>Sheet.233</title>
					<path d="M0 187.77 L5.54 187.77" class="st27"/>
				</g>
				<g id="shape234-479" v:mID="234" v:groupContext="shape" transform="translate(312.497,142.386) rotate(90)">
					<title>Sheet.234</title>
					<path d="M0 187.77 L5.54 187.77" class="st27"/>
				</g>
				<g id="shape235-484" v:mID="235" v:groupContext="shape" transform="translate(314.481,142.386) rotate(90)">
					<title>Sheet.235</title>
					<path d="M0 187.77 L5.54 187.77" class="st27"/>
				</g>
				<g id="shape236-489" v:mID="236" v:groupContext="shape" transform="translate(58.1102,-31.4969)">
					<title>Sheet.236</title>
					<path d="M0 187.77 L138.9 187.77" class="st29"/>
				</g>
				<g id="shape237-492" v:mID="237" v:groupContext="shape" transform="translate(212.598,-31.4969)">
					<title>Sheet.237</title>
					<path d="M0 187.77 L92.13 187.77" class="st29"/>
				</g>
				<g id="shape238-495" v:mID="238" v:groupContext="shape" transform="translate(255.804,156.276) rotate(90)">
					<title>Sheet.238</title>
					<path d="M0 187.77 L5.95 187.77" class="st29"/>
				</g>
				<g id="shape239-498" v:mID="239" v:groupContext="shape" transform="translate(309.662,156.276) rotate(90)">
					<title>Sheet.239</title>
					<path d="M0 187.77 L5.95 187.77" class="st29"/>
				</g>
				<g id="shape240-501" v:mID="240" v:groupContext="shape" transform="translate(364.938,156.276) rotate(90)">
					<title>Sheet.240</title>
					<path d="M0 187.77 L5.95 187.77" class="st29"/>
				</g>
				<g id="shape241-504" v:mID="241" v:groupContext="shape" transform="translate(363.521,141.535) rotate(90)">
					<title>Sheet.241</title>
					<path d="M0 187.77 L6.39 187.77" class="st27"/>
				</g>
				<g id="shape242-509" v:mID="242" v:groupContext="shape" transform="translate(365.505,141.535) rotate(90)">
					<title>Sheet.242</title>
					<path d="M0 187.77 L6.39 187.77" class="st27"/>
				</g>
				<g id="shape243-514" v:mID="243" v:groupContext="shape" transform="translate(367.773,141.819) rotate(90)">
					<title>Sheet.243</title>
					<path d="M0 187.77 L6.11 187.77" class="st27"/>
				</g>
				<g id="shape244-519" v:mID="244" v:groupContext="shape" transform="translate(417.379,142.386) rotate(90)">
					<title>Sheet.244</title>
					<path d="M0 187.77 L6.39 187.77" class="st27"/>
				</g>
				<g id="shape245-524" v:mID="245" v:groupContext="shape" transform="translate(419.363,142.386) rotate(90)">
					<title>Sheet.245</title>
					<path d="M0 187.77 L6.39 187.77" class="st27"/>
				</g>
				<g id="shape246-529" v:mID="246" v:groupContext="shape" transform="translate(421.631,142.669) rotate(90)">
					<title>Sheet.246</title>
					<path d="M0 187.77 L6.11 187.77" class="st27"/>
				</g>
				<g id="shape247-534" v:mID="247" v:groupContext="shape" transform="translate(420.213,156.276) rotate(90)">
					<title>Sheet.247</title>
					<path d="M0 187.77 L5.95 187.77" class="st29"/>
				</g>
				<g id="shape248-537" v:mID="248" v:groupContext="shape" transform="translate(472.654,156.276) rotate(90)">
					<title>Sheet.248</title>
					<path d="M0 187.77 L5.95 187.77" class="st29"/>
				</g>
				<g id="shape249-540" v:mID="249" v:groupContext="shape" transform="translate(168.094,-96.4103)">
					<title>Sheet.249</title>
					<path d="M4.52 187.77 L4.88 187.77 L13.76 187.77" class="st30"/>
				</g>
				<g id="shape250-548" v:mID="250" v:groupContext="shape" transform="translate(140.882,-55.3079)">
					<title>Sheet.250</title>
					<path d="M4.52 187.77 L4.88 187.77 L13.76 187.77" class="st30"/>
				</g>
				<g id="shape251-555" v:mID="251" v:groupContext="shape" transform="translate(195.024,-55.3079)">
					<title>Sheet.251</title>
					<path d="M4.52 187.77 L4.88 187.77 L13.76 187.77" class="st30"/>
				</g>
				<g id="shape258-562" v:mID="258" v:groupContext="shape" transform="translate(3.19744E-14,-120.021)">
					<title>Rectangle.258</title>
					<desc>Stratum 0 Authoritative Clock</desc>
					<v:userDefs>
						<v:ud v:nameU="visVersion" v:val="VT0(15):26"/>
					</v:userDefs>
					<v:textBlock v:margins="rect(4,4,4,4)" v:tabSpace="42.5197"/>
					<v:textRect cx="49.6063" cy="170.724" width="99.22" height="34.0973"/>
					<rect x="0" y="153.675" width="99.2126" height="34.0973" rx="5.66929" ry="5.66929" class="st1"/>
					<text x="4" y="168.02" class="st2" v:langID="1033"><v:paragraph/><v:tabList/>Stratum 0<v:newlineChar/><tspan
								x="4" dy="1.2em" class="st31">Authoritative Clock</tspan></text>				</g>
				<g id="shape259-566" v:mID="259" v:groupContext="shape" transform="translate(211.181,-116.139)">
					<title>Sheet.259</title>
					<desc>GPS Satellite</desc>
					<v:textBlock v:margins="rect(4,4,4,4)" v:tabSpace="42.5197"/>
					<v:textRect cx="26.6614" cy="170.724" width="53.33" height="34.0973"/>
					<rect x="0" y="153.675" width="53.3228" height="34.0973" class="st32"/>
					<text x="4" y="168.47" class="st33" v:langID="1033"><v:paragraph v:spLine="-1"/><v:tabList/>GPS <v:newlineChar/><tspan
								x="4" dy="1em" class="st34">Satellite </tspan> </text>				</g>
			</g>
			<g id="shape261-570" v:mID="261" v:groupContext="shape" transform="translate(124.919,-5.27897)">
				<title>Sheet.261</title>
				<path d="M0 187.77 L16.33 187.77" class="st35"/>
			</g>
			<g id="shape262-576" v:mID="262" v:groupContext="shape" transform="translate(216.15,-5.47413)">
				<title>Sheet.262</title>
				<path d="M6.24 187.77 L6.6 187.77 L18.91 187.77" class="st37"/>
			</g>
			<g id="shape263-584" v:mID="263" v:groupContext="shape">
				<title>Sheet.263</title>
				<desc>Operation Modes:</desc>
				<v:textBlock v:margins="rect(4,4,4,0)" v:tabSpace="42.5197"/>
				<v:textRect cx="41.6192" cy="182.298" width="83.24" height="10.9483"/>
				<rect x="0" y="176.824" width="83.2385" height="10.9483" class="st32"/>
				<text x="0" y="185" class="st33" v:langID="1033"><v:paragraph/><v:tabList/>Operation Modes:</text>			</g>
			<g id="shape264-587" v:mID="264" v:groupContext="shape" transform="translate(72.0517,2.84217E-14)">
				<title>Sheet.264</title>
				<desc>Server-Client</desc>
				<v:textBlock v:margins="rect(4,4,4,4)" v:tabSpace="42.5197"/>
				<v:textRect cx="27.446" cy="182.298" width="54.9" height="10.9483"/>
				<rect x="0" y="176.824" width="54.892" height="10.9483" class="st32"/>
				<text x="4" y="184.7" class="st38" v:langID="1033"><v:paragraph/><v:tabList/>Server-Client</text>			</g>
			<g id="shape265-590" v:mID="265" v:groupContext="shape" transform="translate(152.725,2.84217E-14)">
				<title>Sheet.265</title>
				<desc>Symmetric Peer</desc>
				<v:textBlock v:margins="rect(4,4,4,4)" v:tabSpace="42.5197"/>
				<v:textRect cx="37.1339" cy="182.298" width="74.27" height="10.9483"/>
				<rect x="0" y="176.824" width="74.2677" height="10.9483" class="st32"/>
				<text x="4" y="184.7" class="st38" v:langID="1033"><v:paragraph/><v:tabList/>Symmetric Peer</text>			</g>
			<g id="shape266-593" v:mID="266" v:groupContext="shape" transform="translate(243.412,2.84217E-14)">
				<title>Sheet.266</title>
				<desc>Broadcast/Multicast</desc>
				<v:textBlock v:margins="rect(4,4,4,4)" v:tabSpace="42.5197"/>
				<v:textRect cx="41.6192" cy="182.298" width="83.24" height="10.9483"/>
				<rect x="0" y="176.824" width="83.2385" height="10.9483" class="st32"/>
				<text x="4" y="184.7" class="st38" v:langID="1033"><v:paragraph/><v:tabList/>Broadcast/Multicast</text>			</g>
			<g id="group270-596" transform="translate(319.793,-2.29399)" v:mID="270" v:groupContext="group">
				<title>Sheet.270</title>
				<g id="shape267-597" v:mID="267" v:groupContext="shape">
					<title>Sheet.267</title>
					<path d="M0 187.77 L10.23 187.77" class="st39"/>
				</g>
				<g id="shape268-603" v:mID="268" v:groupContext="shape" transform="translate(0,-2.96813)">
					<title>Sheet.268</title>
					<path d="M0 187.77 L10.23 187.77" class="st39"/>
				</g>
				<g id="shape269-608" v:mID="269" v:groupContext="shape" transform="translate(0.424019,-6.36029)">
					<title>Sheet.269</title>
					<path d="M0 187.77 L9.81 187.77" class="st39"/>
				</g>
			</g>
		</g>
	</g>
</svg>
